<svg id="Capa_1" enable-background="new 0 0 512 512" height="512" viewBox="0 0 512 512" width="512" xmlns="http://www.w3.org/2000/svg"><path d="m121.5 339.308c4.142 0 7.5-3.358 7.5-7.5v-16.5h16.5c4.142 0 7.5-3.358 7.5-7.5s-3.358-7.5-7.5-7.5h-16.5v-16.5c0-4.142-3.358-7.5-7.5-7.5s-7.5 3.358-7.5 7.5v16.5h-16.5c-4.142 0-7.5 3.358-7.5 7.5s3.358 7.5 7.5 7.5h16.5v16.5c0 4.142 3.358 7.5 7.5 7.5zm100.413 16.227c-2.869 7.415.417 15.643 7.643 19.141 5.695 2.757 12.193 2.203 18.174-3.456 19.232-18.197 38.746-36.648 57.931-54.847 3.792-3.597 5.634-8.455 5.054-13.327-.587-4.928-3.569-9.275-8.181-11.926-9.06-5.208-18.092-10.462-27.138-15.695 4.941-11.602 10.045-23.545 14.685-35.525 1.796-4.637 1.181-9.848-1.646-13.939-5.742-8.31-16.759-8.792-24.179-1.731-19.4 18.461-38.6 36.54-57.914 54.837-3.75 3.552-5.599 8.377-5.074 13.238.52 4.814 3.316 9.083 7.671 11.713 9.204 5.558 18.479 10.79 27.673 16.044-5.186 12.403-9.977 23.271-14.699 35.473zm18.69-6.092c3.965-9.453 7.882-18.956 12.006-28.717 1.485-3.516.897-8.264-3.764-10.944-10.705-6.154-21.519-12.191-32.152-18.606-.757-.457-.736-.556-.035-1.221 20.528-19.449 57.327-54.639 59.003-55.717.313.074.419.227.432.246-5.242 13.518-11.067 26.953-16.687 40.223-1.792 4.232-.292 8.637 3.732 10.96 10.644 6.144 21.261 12.335 31.918 18.458.58.333.667 1.002.281 1.367-20.411 19.351-57.236 54.773-59.117 55.741-.142-.051-.352-.196-.318-.284 1.483-3.831 3.119-7.733 4.701-11.506zm173.897-34.135c4.142 0 7.5-3.358 7.5-7.5s-3.358-7.5-7.5-7.5h-48c-4.142 0-7.5 3.358-7.5 7.5s3.358 7.5 7.5 7.5zm-69.711 111.346c0 4.142 3.358 7.5 7.5 7.5h86.211c7.444 0 13.5-6.056 13.5-13.5v-245.846c0-7.444-6.056-13.5-13.5-13.5h-365c-7.444 0-13.5 6.056-13.5 13.5v245.846c0 7.444 6.056 13.5 13.5 13.5h248.789c4.142 0 7.5-3.358 7.5-7.5s-3.358-7.5-7.5-7.5h-247.289v-242.846h362v242.846h-84.711c-4.142 0-7.5 3.358-7.5 7.5zm144.711-280.346c12.407 0 22.5-10.093 22.5-22.5v-21.996c0-12.407-10.093-22.5-22.5-22.5h-30.794v-22.156c0-9.649-7.851-17.5-17.5-17.5h-3.5v-22.156c0-9.649-7.851-17.5-17.5-17.5h-41.412c-9.649 0-17.5 7.851-17.5 17.5v22.156h-3.5c-9.649 0-17.5 7.851-17.5 17.5v22.156h-168.588v-22.156c0-9.649-7.851-17.5-17.5-17.5h-3.5v-22.156c0-9.649-7.851-17.5-17.5-17.5h-41.412c-9.649 0-17.5 7.851-17.5 17.5v22.156h-3.5c-9.649 0-17.5 7.851-17.5 17.5v22.156h-30.794c-12.407 0-22.5 10.093-22.5 22.5v21.996c0 12.407 10.093 22.5 22.5 22.5h7.5v52.313c0 4.142 3.358 7.5 7.5 7.5s7.5-3.358 7.5-7.5v-52.313h422v302.846h-422v-220.533c0-4.142-3.358-7.5-7.5-7.5s-7.5 3.358-7.5 7.5v220.533h-7.5c-12.407 0-22.5 10.093-22.5 22.5v17.846c0 12.407 10.093 22.5 22.5 22.5h467c12.407 0 22.5-10.093 22.5-22.5v-17.846c0-12.407-10.093-22.5-22.5-22.5h-7.5v-302.846zm-113.206-128.808c0-1.378 1.122-2.5 2.5-2.5h41.412c1.378 0 2.5 1.122 2.5 2.5v22.156h-46.412zm-21 39.656c0-1.378 1.122-2.5 2.5-2.5h83.412c1.378 0 2.5 1.122 2.5 2.5v22.156h-88.412zm-266-39.656c0-1.378 1.122-2.5 2.5-2.5h41.412c1.378 0 2.5 1.122 2.5 2.5v22.156h-46.412zm-21 39.656c0-1.378 1.122-2.5 2.5-2.5h83.412c1.378 0 2.5 1.122 2.5 2.5v22.156h-88.412zm421.206 406.998c4.136 0 7.5 3.365 7.5 7.5v17.846c0 4.135-3.364 7.5-7.5 7.5h-467c-4.136 0-7.5-3.365-7.5-7.5v-17.846c0-4.135 3.364-7.5 7.5-7.5zm-467-332.846c-4.136 0-7.5-3.364-7.5-7.5v-21.996c0-4.136 3.364-7.5 7.5-7.5h467c4.136 0 7.5 3.364 7.5 7.5v21.996c0 4.136-3.364 7.5-7.5 7.5z"/></svg>