<svg id="Layer_1" enable-background="new 0 0 512 512" height="512" viewBox="0 0 512 512" width="512" xmlns="http://www.w3.org/2000/svg"><path d="m272 512h-224c-26.468 0-48-21.532-48-48v-416c0-26.468 21.532-48 48-48h224c26.468 0 48 21.532 48 48v416c0 26.468-21.532 48-48 48zm-224-480c-8.822 0-16 7.178-16 16v416c0 8.822 7.178 16 16 16h224c8.822 0 16-7.178 16-16v-416c0-8.822-7.178-16-16-16z"/><path d="m224 448c-17.645 0-32-14.355-32-32s14.355-32 32-32 32 14.355 32 32-14.355 32-32 32zm-.001-32.021.001.021c0-.014-.001-.021-.001-.021z"/><path d="m160 160h-80c-8.837 0-16-7.163-16-16v-48c0-4.243 1.686-8.313 4.687-11.313l16-16c3-3.001 7.07-4.687 11.313-4.687h48c4.243 0 8.313 1.686 11.313 4.687l16 16c3.001 3 4.687 7.07 4.687 11.313v48c0 8.837-7.163 16-16 16zm-64-32h48v-25.373l-6.627-6.627h-34.746l-6.627 6.627z"/><path d="m160 288h-80c-8.837 0-16-7.163-16-16v-48c0-4.243 1.686-8.313 4.687-11.313l16-16c3-3.001 7.07-4.687 11.313-4.687h48c4.243 0 8.313 1.686 11.313 4.687l16 16c3.001 3 4.687 7.07 4.687 11.313v48c0 8.837-7.163 16-16 16zm-64-32h48v-25.373l-6.627-6.627h-34.746l-6.627 6.627z"/><path d="m160 416h-80c-8.837 0-16-7.163-16-16v-48c0-4.243 1.686-8.313 4.687-11.313l16-16c3-3.001 7.07-4.687 11.313-4.687h48c4.243 0 8.313 1.686 11.313 4.687l16 16c3.001 3 4.687 7.07 4.687 11.313v48c0 8.837-7.163 16-16 16zm-64-32h48v-25.373l-6.627-6.627h-34.746l-6.627 6.627z"/><path d="m240 224h-16c-8.837 0-16-7.163-16-16s7.163-16 16-16h16c8.837 0 16 7.163 16 16s-7.163 16-16 16z"/><path d="m240 288h-16c-8.837 0-16-7.163-16-16s7.163-16 16-16h16c8.837 0 16 7.163 16 16s-7.163 16-16 16z"/><path d="m240 352h-16c-8.837 0-16-7.163-16-16s7.163-16 16-16h16c8.837 0 16 7.163 16 16s-7.163 16-16 16z"/><path d="m336 432h-112c-8.837 0-16-7.163-16-16s7.163-16 16-16h112c44.112 0 80-35.888 80-80v-176c0-8.837 7.163-16 16-16s16 7.163 16 16v176c0 61.757-50.243 112-112 112z"/><path d="m456 159h-48c-22.056 0-40-17.944-40-40v-55c0-8.837 7.163-16 16-16h96c8.837 0 16 7.163 16 16v55c0 22.056-17.944 40-40 40zm-56-79v39c0 4.411 3.589 8 8 8h48c4.411 0 8-3.589 8-8v-39z"/><path d="m496 80h-128c-8.837 0-16-7.163-16-16s7.163-16 16-16h128c8.837 0 16 7.163 16 16s-7.163 16-16 16z"/><path d="m400 80c-8.837 0-16-7.163-16-16v-48c0-8.837 7.163-16 16-16s16 7.163 16 16v48c0 8.837-7.163 16-16 16z"/><path d="m464 80c-8.837 0-16-7.163-16-16v-48c0-8.837 7.163-16 16-16s16 7.163 16 16v48c0 8.837-7.163 16-16 16z"/></svg>