<svg id="Capa_1" enable-background="new 0 0 512 512" height="512" viewBox="0 0 512 512" width="512" xmlns="http://www.w3.org/2000/svg"><g><path d="m210.867 290.788h90.294c5.522 0 10-4.478 10-10s-4.478-10-10-10h-90.294c-5.522 0-10 4.478-10 10s4.478 10 10 10z"/><path d="m337.688 316.142h-163.375c-5.522 0-10 4.478-10 10s4.478 10 10 10h163.375c5.522 0 10-4.478 10-10s-4.478-10-10-10z"/><path d="m387.371 436.102h-.057c-5.522 0-9.972 4.478-9.972 10s4.506 10 10.028 10 10-4.478 10-10-4.476-10-9.999-10z"/><path d="m417.063 215.287h-19.436v-29.775h5.285c21.467 0 38.869-17.402 38.869-38.869v-63.227c0-17.983-12.268-33.148-28.869-37.574v-35.842c0-5.523-4.477-10-10-10h-66.785c-5.523 0-10 4.477-10 10v34.531h-34.477v-34.531c0-5.523-4.477-10-10-10h-66.756c-5.523 0-10 4.477-10 10v35.84c-16.617 4.424-28.897 19.59-28.897 37.576v43.177h-29.741v-10.863c0-9.468-7.675-17.144-17.144-17.144h-41.747c-9.47 0-17.146 7.677-17.146 17.146v41.719c0 9.47 7.677 17.146 17.146 17.146h10.872v40.688h-3.271c-3.752 0-7.45.239-11.078.702-.11.011-.217.031-.326.046-42.584 5.6-75.562 42.101-75.562 86.156v62.531c0 47.934 39.013 86.931 86.966 86.931h3.526v39.011c0 11.766 9.563 21.338 21.315 21.338h42.312c11.787 0 21.343-9.555 21.343-21.343v-39.006h138.209c2.831 33.748 31.194 60.349 65.672 60.349 36.335 0 65.896-29.562 65.896-65.898 0-.799-.032-1.591-.061-2.383 30.69-14.081 50.822-44.899 50.822-78.998v-62.531c0-47.919-39-86.903-86.937-86.903zm4.718-131.887v63.227c0 10.43-8.455 18.885-18.885 18.885h-29.432v-100.981h29.447c10.422 0 18.87 8.448 18.87 18.869zm-157.468 82.112v-20.336h89.152v20.336zm64.991 20v29.775h-40.801v-29.775zm-60.801 0v29.775h-28.352v-29.775zm-4.19-60.336v-20.309h89.152v20.309zm84.991 60.336h28.323v29.775h-28.323zm-3.177-165.512h46.785v24.531h-46.785zm7.338 44.531v20.336h-89.152v-20.336zm-128.57-44.531h46.756v24.531h-46.756zm-28.898 63.416c0-10.43 8.455-18.885 18.885-18.885h29.431v100.98h-29.418c-10.437 0-18.897-8.461-18.897-18.897v-63.198zm-49.741 74.036v-10.859h29.741v.034c0 21.476 17.409 38.885 38.885 38.885h5.27v29.775h-101.915v-40.688h10.872c9.47 0 17.147-7.677 17.147-17.147zm-56.037-2.853v-36.012h36.037v36.012zm73.243 336.058c0 .739-.604 1.343-1.343 1.343h-42.312c-.688 0-1.315-.638-1.315-1.338v-39.011h44.97zm159.576-59.006h-149.576-64.97-13.526c-.037-.037-.058-.059-.096-.096v-58.784c0-5.012-3.555-9.492-8.516-10.206-6.182-.889-11.484 3.883-11.484 9.893v56.109c-27.136-8.55-46.87-33.937-46.87-63.846v-62.531c0-29.897 19.734-55.273 46.87-63.82v43.978c0 5.012 3.555 9.492 8.516 10.206 6.182.889 11.484-3.883 11.484-9.893v-47.37l.002-.002h322.19l.067.067v152.021c-8.953-4.556-19.071-7.143-29.787-7.143-31.38-.002-57.692 22.028-64.304 51.417zm110.062 18.049c-1.721 22.434-19.858 40.521-42.298 42.173-26.878 1.978-49.383-19.319-49.383-45.771 0-1.132.056-2.251.137-3.363.009-.084.012-.17.02-.255 1.855-23.605 21.665-42.251 45.767-42.251 26.497-.001 47.822 22.558 45.757 49.467zm50.9-84.979c0 24.603-13.629 46.995-34.813 58.639-2.776-7.519-6.899-14.386-12.057-20.335v-164.663c27.135 8.542 46.87 33.923 46.87 63.827z"/><path d="m83.386 317.667c-4.961.714-8.516 5.193-8.516 10.206v.031c0 3.626 1.99 7.043 5.271 8.587 7.445 3.503 14.729-1.887 14.729-8.93 0-6.011-5.303-10.784-11.484-9.894z"/></g></svg>