<svg id="Capa_1" enable-background="new 0 0 512 512" height="512" viewBox="0 0 512 512" width="512" xmlns="http://www.w3.org/2000/svg"><g><path d="m255.986 43.924c5.523 0 10-4.477 10-10v-23.924c0-5.523-4.477-10-10-10s-10 4.477-10 10v23.924c0 5.523 4.477 10 10 10z"/><path d="m361.372 149.264c0 5.523 4.477 10 10 10h23.962c5.523 0 10-4.477 10-10s-4.477-10-10-10h-23.962c-5.523 0-10 4.477-10 10z"/><path d="m116.666 159.264h23.934c5.523 0 10-4.477 10-10s-4.477-10-10-10h-23.934c-5.523 0-10 4.477-10 10s4.477 10 10 10z"/><path d="m337.57 77.712c2.558 0 5.118-.976 7.07-2.928l16.929-16.923c3.906-3.904 3.907-10.236.002-14.142-3.904-3.906-10.236-3.907-14.142-.002l-16.929 16.923c-3.906 3.904-3.907 10.236-.002 14.142 1.952 1.954 4.512 2.93 7.072 2.93z"/><path d="m167.332 74.785c1.953 1.952 4.511 2.928 7.07 2.928 2.56 0 5.12-.977 7.072-2.93 3.905-3.906 3.903-10.238-.002-14.142l-16.929-16.923c-3.907-3.906-10.238-3.904-14.142.002-3.905 3.906-3.903 10.238.002 14.142z"/><path d="m485.342 353.256-19.313-107.39c-.023-.13-.042-.26-.07-.388l-9.598-53.369c-.857-4.764-5.002-8.23-9.842-8.23h-119.371c5.214-10.703 8.001-22.537 8.001-34.616 0-43.62-35.513-79.107-79.164-79.107-43.635 0-79.135 35.487-79.135 79.107 0 12.074 2.784 23.908 7.993 34.616h-119.39c-4.841 0-8.986 3.467-9.842 8.231l-19.239 107.081c-.029.134-.049.27-.073.406l-9.641 53.662c-.524 2.915.271 5.912 2.171 8.184s4.709 3.584 7.671 3.584h16.004v11.316c0 17.252 14.04 31.288 31.296 31.288h29.322c5.523 0 10-4.477 10-10s-4.477-10-10-10h-29.322c-6.229 0-11.296-5.063-11.296-11.288v-11.316h366.992v11.316c0 6.224-5.067 11.288-11.296 11.288h-225.243c-5.523 0-10 4.477-10 10s4.477 10 10 10h19.407v40.859h-21.675c-17.507 0-31.75 14.239-31.75 31.741v11.769h-43.397c-5.523 0-10 4.477-10 10s4.477 10 10 10h260.916c5.523 0 10-4.477 10-10s-4.477-10-10-10h-43.397v-11.77c0-17.502-14.243-31.741-31.75-31.741h-21.675v-40.859h138.564c17.257 0 31.296-14.036 31.296-31.288v-11.316h16.004c2.962 0 5.771-1.313 7.671-3.585s2.695-5.27 2.171-8.185zm-242.978 54.374h27.271v40.859h-27.271zm68.947 60.859c6.479 0 11.75 5.267 11.75 11.741v11.77h-134.122v-11.77c0-6.474 5.271-11.741 11.75-11.741zm35.942-177.178h-81.267v-33.716h76.611zm-12.074-87.431 4.656 33.715h-73.849v-33.715zm-79.193-113.724c32.623 0 59.164 26.516 59.164 59.107 0 12.478-3.966 24.604-11.229 34.616h-95.861c-7.249-10.022-11.209-22.148-11.209-34.616 0-32.591 26.527-59.107 59.135-59.107zm-118.875 254.87h-88.654l6.057-33.715h87.259zm7.428-53.715h-86.431l6.057-33.716h85.036zm7.427-53.716h-84.208l6.057-33.715h82.813zm94.02 107.431h-88.684l4.662-33.715h84.022zm0-53.715h-81.257l4.662-33.716h76.595zm0-53.716h-73.829l4.662-33.715h69.167zm20 107.431v-33.715h84.029l4.656 33.715zm89.383-141.146h82.788l6.063 33.715h-84.195zm7.418 53.715h85.03l6.063 33.716h-86.438zm12.074 87.431-4.656-33.715h87.273l6.063 33.715z"/><path d="m158.068 407.63c5.523 0 9.986-4.477 9.986-10s-4.491-10-10.014-10-10 4.477-10 10 4.477 10 10 10z"/></g></svg>