<svg height="512pt" viewBox="-96 0 512 512" width="512pt" xmlns="http://www.w3.org/2000/svg"><path d="m32 224h16v256h-16zm0 0"/><path d="m272 224h16v256h-16zm0 0"/><path d="m0 0v512h320v-512zm304 496h-288v-480h288zm0 0"/><path d="m168 368.640625v-16.640625h-16v16.640625c-29.070312 4.195313-49.960938 30.140625-47.855469 59.433594 2.101563 29.296875 26.484375 51.992187 55.855469 51.992187s53.753906-22.695312 55.855469-51.992187c2.105469-29.292969-18.785157-55.238281-47.855469-59.433594zm-8 95.359375c-20.550781.019531-37.773438-15.535156-39.835938-35.980469-2.066406-20.445312 11.695313-39.128906 31.835938-43.21875v39.199219h16v-39.199219c20.140625 4.089844 33.902344 22.773438 31.835938 43.21875-2.0625 20.445313-19.285157 36-39.835938 35.980469zm0 0"/><path d="m288 32h-256v160h256zm-16 144h-224v-128h224zm0 0"/><path d="m256 64h-192v96h192zm-16 80h-160v-64h160zm0 0"/><path d="m200 224h-80c-13.253906 0-24 10.746094-24 24s10.746094 24 24 24h80c13.253906 0 24-10.746094 24-24s-10.746094-24-24-24zm0 32h-80c-4.417969 0-8-3.582031-8-8s3.582031-8 8-8h80c4.417969 0 8 3.582031 8 8s-3.582031 8-8 8zm0 0"/><path d="m200 288h-80c-13.253906 0-24 10.746094-24 24s10.746094 24 24 24h80c13.253906 0 24-10.746094 24-24s-10.746094-24-24-24zm0 32h-80c-4.417969 0-8-3.582031-8-8s3.582031-8 8-8h80c4.417969 0 8 3.582031 8 8s-3.582031 8-8 8zm0 0"/></svg>